# xmcd
#
# Track frame offsets: 
#        150
#        15972
#        33511
#        52331
#        88573
#        107598
#        124599
#        153623
#        173858
#        186098
#        206612
#        228754
#        248368
#
# Disc length: 3589 seconds
#
# Revision: 0
# Processed by: cddbd v1.5.2PL0 Copyright (c) Steve Scherf et al.
# Submitted via: ExactAudioCopy v0.99pb3
#
DISCID=9c0e030d
DTITLE=The Hoochie Coochie Men - Danger White Men Dancing
DYEAR=2007
DGENRE=Blues
TTITLE0=The Blues Just Got Sadder
TTITLE1=Gotta Find Me Some Fire
TTITLE2=Twisted System
TTITLE3=Over And Over
TTITLE4=Let It Go
TTITLE5=Heart Of Stone
TTITLE6=If This Ain't The Blues
TTITLE7=Danger White Men Dancing
TTITLE8=Dead Presidents
TTITLE9=Hoochie Coochie Man
TTITLE10=Bottle O' Wine
TTITLE11=Everybody Wants To Go To Heaven
TTITLE12=Tell Your Story Walkin'
EXTD=
EXTT0=The Blues Just Got Sadder
EXTT1=
EXTT2=
EXTT3=
EXTT4=
EXTT5=
EXTT6=
EXTT7=
EXTT8=
EXTT9=
EXTT10=
EXTT11=
EXTT12=
PLAYORDER=
